<?xml version="1.0" standalone="no"?><!DOCTYPE svg PUBLIC "-//W3C//DTD SVG 1.1//EN" "http://www.w3.org/Graphics/SVG/1.1/DTD/svg11.dtd"><svg t="1716517005915" class="icon" viewBox="0 0 1024 1024" version="1.1" xmlns="http://www.w3.org/2000/svg" p-id="4040" width="128" height="128" xmlns:xlink="http://www.w3.org/1999/xlink"><path d="M499.662651 673.783775a160.056546 160.056546 0 1 1 159.892048 159.892048 160.056546 160.056546 0 0 1-159.892048-159.892048z m329.818473 145.416225a222.894779 222.894779 0 1 0-48.362409 42.275984l149.857671 148.048193a31.994859 31.994859 0 0 0 45.236947-45.236948zM491.602249 449.73751h-263.196787v63.989719h194.765622a224.375261 224.375261 0 0 1 68.431165-63.989719z m-261.551807 127.979438v63.989719h155.6151a227.994217 227.994217 0 0 1 9.211888-63.989719zM102.4 63.989719h768.041124v512.082249h63.989719V63.989719A63.989719 63.989719 0 0 0 870.441124 0H102.4A63.989719 63.989719 0 0 0 38.410281 63.989719v896.020562a63.989719 63.989719 0 0 0 63.989719 63.989719h448.09253v-63.989719H102.4z m126.334458 257.768353h511.917751v63.989719H228.734458z m1.64498-128.637429H742.461687v63.989718H230.379438z" fill="#0067FF" p-id="4041"></path><path d="M659.480655 673.76221m-159.945958 5.948814a160.056546 160.056546 0 1 0 319.891917-11.897627 160.056546 160.056546 0 1 0-319.891917 11.897627Z" fill="#FECB2F" p-id="4042"></path></svg>